<svg width="174" height="38" viewBox="0 0 174 38" fill="none" xmlns="http://www.w3.org/2000/svg">
<path d="M89.65 23.7L94.72 8.73H99.76L91.99 30H87.1L79.3 8.73H84.52L89.65 23.7ZM99.2409 25.89C99.2409 24.63 99.6509 23.62 100.471 22.86C101.291 22.08 102.351 21.59 103.651 21.39L107.161 20.85C107.881 20.75 108.241 20.41 108.241 19.83C108.241 19.37 108.041 18.99 107.641 18.69C107.261 18.37 106.731 18.21 106.051 18.21C105.291 18.21 104.681 18.43 104.221 18.87C103.781 19.29 103.541 19.8 103.501 20.4L99.5409 19.59C99.6409 18.35 100.251 17.22 101.371 16.2C102.511 15.16 104.081 14.64 106.081 14.64C108.341 14.64 110.001 15.18 111.061 16.26C112.141 17.34 112.681 18.72 112.681 20.4V27.69C112.681 28.63 112.741 29.4 112.861 30H108.751C108.651 29.6 108.601 29.04 108.601 28.32C107.741 29.72 106.341 30.42 104.401 30.42C102.821 30.42 101.561 29.98 100.621 29.1C99.7009 28.2 99.2409 27.13 99.2409 25.89ZM105.511 27.12C106.291 27.12 106.941 26.89 107.461 26.43C107.981 25.97 108.241 25.21 108.241 24.15V23.49L105.421 23.94C104.301 24.12 103.741 24.67 103.741 25.59C103.741 26.01 103.881 26.37 104.161 26.67C104.461 26.97 104.911 27.12 105.511 27.12ZM121.078 21.45V30H116.518V15.09H120.928V16.8C121.308 16.14 121.888 15.63 122.668 15.27C123.468 14.89 124.278 14.7 125.098 14.7C126.878 14.7 128.228 15.26 129.148 16.38C130.068 17.48 130.528 18.9 130.528 20.64V30H125.968V21.42C125.968 20.64 125.758 20.02 125.338 19.56C124.938 19.08 124.338 18.84 123.538 18.84C122.798 18.84 122.198 19.09 121.738 19.59C121.298 20.07 121.078 20.69 121.078 21.45Z" fill="#263238"/>
<path d="M154.31 30H150.47L150.17 27.84C149.65 28.58 148.88 29.2 147.86 29.7C146.84 30.2 145.62 30.45 144.2 30.45C141.16 30.45 138.6 29.43 136.52 27.39C134.46 25.33 133.43 22.66 133.43 19.38C133.43 16.12 134.5 13.46 136.64 11.4C138.8 9.32 141.42 8.28 144.5 8.28C147.26 8.28 149.45 8.93 151.07 10.23C152.69 11.53 153.78 13.07 154.34 14.85L149.78 16.44C149.56 15.54 149.01 14.7 148.13 13.92C147.27 13.12 146.06 12.72 144.5 12.72C142.86 12.72 141.4 13.29 140.12 14.43C138.86 15.55 138.23 17.2 138.23 19.38C138.23 21.5 138.84 23.16 140.06 24.36C141.28 25.54 142.8 26.13 144.62 26.13C146.18 26.13 147.4 25.76 148.28 25.02C149.16 24.26 149.69 23.47 149.87 22.65H143.48V18.63H154.31V30ZM164.842 26.25C165.782 26.25 166.572 25.93 167.212 25.29C167.872 24.65 168.202 23.73 168.202 22.53C168.202 21.33 167.872 20.42 167.212 19.8C166.572 19.16 165.782 18.84 164.842 18.84C163.922 18.84 163.132 19.16 162.472 19.8C161.812 20.44 161.482 21.35 161.482 22.53C161.482 23.71 161.812 24.63 162.472 25.29C163.132 25.93 163.922 26.25 164.842 26.25ZM164.842 14.64C167.102 14.64 168.982 15.38 170.482 16.86C172.002 18.34 172.762 20.23 172.762 22.53C172.762 24.83 172.002 26.73 170.482 28.23C168.982 29.71 167.102 30.45 164.842 30.45C162.602 30.45 160.722 29.7 159.202 28.2C157.682 26.7 156.922 24.81 156.922 22.53C156.922 20.25 157.682 18.37 159.202 16.89C160.722 15.39 162.602 14.64 164.842 14.64Z" fill="#60B0B0"/>
<path d="M23.2626 23.1012L12.208 0.938405C11.9217 0.362192 11.3326 0 10.6908 0H2.37603C1.09582 0 0.276346 1.36645 0.880252 2.49582L17.2861 33.2327C17.5806 33.7858 18.1565 34.1299 18.7818 34.1299H23.4403V23.8585C23.4403 23.5951 23.3794 23.3366 23.2626 23.1012Z" fill="#60B0B0"/>
<path d="M61.5391 24.2849C61.2906 24.0824 61.0866 23.8289 60.9665 23.5309L56.257 11.9622C56.0908 11.5539 55.742 11.2757 55.3437 11.1835C55.2121 11.139 55.0739 11.1127 54.9274 11.1127H46.0515C45.0444 11.1127 44.2266 11.9293 44.2266 12.9384V18.6528C44.2266 19.6604 45.0428 20.4786 46.0515 20.4786H47.5785C48.319 20.4786 48.9871 20.9264 49.2668 21.6129C49.7572 22.8147 48.8752 24.1301 47.5785 24.1301H37.605C36.2277 24.1301 35.3458 22.66 35.9957 21.445L45.9561 2.78393C46.6291 1.52285 45.7158 0 44.2875 0H36.3643C35.6469 0 34.992 0.404997 34.6727 1.04706L23.6395 23.1654C23.5079 23.4272 23.4404 23.7169 23.4404 24.01V34.1299H29.7181C29.7181 36.2191 31.4031 37.9132 33.483 37.9132C35.563 37.9132 37.248 36.2191 37.248 34.1299H48.5856C48.5856 36.2191 50.2706 37.9132 52.3505 37.9132C54.4305 37.9132 56.1155 36.2191 56.1155 34.1299H60.175C61.182 34.1299 61.9999 33.3133 61.9999 32.3041V25.2464C61.9999 24.8562 61.8205 24.5104 61.5424 24.2833L61.5391 24.2849Z" fill="#60B0B0"/>
</svg>
